<svg xmlns="http://www.w3.org/2000/svg" viewBox="0 0 1024 1024">
  <defs>
    <linearGradient id="bg" x1="120" y1="80" x2="900" y2="940" gradientUnits="userSpaceOnUse">
      <stop offset="0" stop-color="#102033"/>
      <stop offset="0.58" stop-color="#172a3a"/>
      <stop offset="1" stop-color="#0b151f"/>
    </linearGradient>
    <linearGradient id="line" x1="226" y1="690" x2="808" y2="302" gradientUnits="userSpaceOnUse">
      <stop offset="0" stop-color="#31d0aa"/>
      <stop offset="1" stop-color="#a8e35f"/>
    </linearGradient>
    <filter id="shadow" x="-20%" y="-20%" width="140%" height="140%">
      <feDropShadow dx="0" dy="24" stdDeviation="28" flood-color="#02070b" flood-opacity="0.34"/>
    </filter>
  </defs>
  <rect width="1024" height="1024" rx="232" fill="url(#bg)"/>
  <g filter="url(#shadow)">
    <rect x="174" y="190" width="676" height="644" rx="96" fill="#f7fbff"/>
    <rect x="226" y="268" width="572" height="86" rx="26" fill="#dce7f1"/>
    <rect x="226" y="406" width="138" height="302" rx="28" fill="#e5edf5"/>
    <rect x="410" y="474" width="138" height="234" rx="28" fill="#d6e2eb"/>
    <rect x="594" y="374" width="138" height="334" rx="28" fill="#c8d9e5"/>
    <path d="M244 662L363 558L478 612L626 455L778 330" fill="none" stroke="url(#line)" stroke-width="58" stroke-linecap="round" stroke-linejoin="round"/>
    <circle cx="244" cy="662" r="36" fill="#31d0aa"/>
    <circle cx="363" cy="558" r="36" fill="#43d19c"/>
    <circle cx="478" cy="612" r="36" fill="#5bd183"/>
    <circle cx="626" cy="455" r="36" fill="#7fd46d"/>
    <circle cx="778" cy="330" r="36" fill="#a8e35f"/>
  </g>
  <text x="512" y="802" text-anchor="middle" font-family="Arial, Helvetica, sans-serif" font-size="118" font-weight="800" letter-spacing="10" fill="#102033">DCF</text>
</svg>
